<?xml version="1.0" encoding="UTF-8"?>
<svg version="1.1" xmlns="http://www.w3.org/2000/svg" width="303" height="279">
<path d="M0 0 C3.0872449 13.86166772 1.61459743 29.38071327 -2 43 C-5.3 43 -8.6 43 -12 43 C-11.86722656 42.25878906 -11.73445312 41.51757812 -11.59765625 40.75390625 C-10.0477904 31.51127558 -9.42562119 22.35246552 -9 13 C-19.84542033 15.89582468 -28.75834631 19.44350944 -38 26 C-38.93070313 26.52335937 -39.86140625 27.04671875 -40.8203125 27.5859375 C-44.29794722 31.43751143 -43.69789213 35.55016774 -43.6875 40.5625 C-43.72619243 42.5456896 -43.77040357 44.52877972 -43.8203125 46.51171875 C-43.84254883 47.45966309 -43.86478516 48.40760742 -43.88769531 49.38427734 C-44.08676146 54.02078749 -44.8916308 58.50195802 -46 63 C-44.91203125 62.52949219 -43.8240625 62.05898437 -42.703125 61.57421875 C-14.38191687 49.50352007 10.90610204 50.54646328 40 59 C35.50547974 69.4083627 29.07308128 79.92691872 21 88 C27.93 88.33 34.86 88.66 42 89 C42 95.6 42 102.2 42 109 C35.07 109 28.14 109 21 109 C20.01 112.3 19.02 115.6 18 119 C16.52042936 121.88126915 15.04266524 124.61528301 13.375 127.375 C12.56600228 128.73442338 11.76115542 130.09632748 10.9609375 131.4609375 C10.43185791 132.33951416 10.43185791 132.33951416 9.89208984 133.23583984 C8.89184124 135.21389031 8.24667123 136.78901364 8 139 C9.91934784 141.29016466 11.76347858 143.23281698 13.9375 145.25 C14.51435547 145.80429688 15.09121094 146.35859375 15.68554688 146.9296875 C17.11277729 148.29794145 18.55502058 149.6505038 20 151 C15.03805145 156.99500997 9.6523376 162.46427037 4.125 167.9375 C3.24585938 168.81212891 2.36671875 169.68675781 1.4609375 170.58789062 C-0.6904346 172.72757048 -2.84411792 174.86486597 -5 177 C-8.7658106 173.81968878 -12.48438989 170.64858175 -15.9375 167.125 C-16.52402344 166.52945313 -17.11054688 165.93390625 -17.71484375 165.3203125 C-18.35099609 164.66675781 -18.35099609 164.66675781 -19 164 C-22.64529732 165.36259669 -26.06726657 167.02673125 -29.51977539 168.81835938 C-39.21155519 173.83162852 -47.89447569 178 -59 178 C-59 185.26 -59 192.52 -59 200 C-72.86 200 -86.72 200 -101 200 C-101 192.74 -101 185.48 -101 178 C-103.31 178 -105.62 178 -108 178 C-108.66 177.34 -109.32 176.68 -110 176 C-111.38154076 175.575358 -112.78139926 175.20944942 -114.1875 174.875 C-121.68280498 172.76318415 -128.2303343 168.75119123 -135 165 C-136.98 164.01 -136.98 164.01 -139 163 C-143.62 167.62 -148.24 172.24 -153 177 C-157.14438932 173.4476663 -161.03046031 170.09346755 -164.83984375 166.2578125 C-165.67451172 165.41992188 -166.50917969 164.58203125 -167.36914062 163.71875 C-168.21669922 162.8628125 -169.06425781 162.006875 -169.9375 161.125 C-170.81212891 160.24585938 -171.68675781 159.36671875 -172.58789062 158.4609375 C-174.72757048 156.3095654 -176.86486597 154.15588208 -179 152 C-175.66883385 148.04625813 -172.31571444 144.18958143 -168.625 140.5625 C-167.93664062 139.88316406 -167.24828125 139.20382813 -166.5390625 138.50390625 C-166.03117187 138.00761719 -165.52328125 137.51132813 -165 137 C-165.77923828 135.69289062 -165.77923828 135.69289062 -166.57421875 134.359375 C-178 114.93993297 -178 114.93993297 -178 109 C-185.59 109 -193.18 109 -201 109 C-201 102.4 -201 95.8 -201 89 C-193.74 88.67 -186.48 88.34 -179 88 C-180.299375 86.494375 -181.59875 84.98875 -182.9375 83.4375 C-188.82285501 76.26501505 -195.04585549 67.86243352 -198 59 C-194.62581286 58.18409943 -191.25051419 57.3728913 -187.875 56.5625 C-186.92367187 56.33240234 -185.97234375 56.10230469 -184.9921875 55.86523438 C-177.52288 54.07571279 -170.68693699 52.8674666 -163 53 C-161.50178941 56.37097383 -161 58.20442119 -161 62 C-167.93 62.99 -174.86 63.98 -182 65 C-177.41135729 72.55383203 -177.41135729 72.55383203 -172.0625 79.5625 C-170 82 -170 82 -170 84 C-169.401875 84.28875 -168.80375 84.5775 -168.1875 84.875 C-166 86 -166 86 -163 88 C-160.03157342 88.45915507 -160.03157342 88.45915507 -156.8125 88.625 C-155.18248047 88.73714844 -155.18248047 88.73714844 -153.51953125 88.8515625 C-152.27236328 88.92503906 -152.27236328 88.92503906 -151 89 C-150.72027344 90.00417969 -150.44054687 91.00835937 -150.15234375 92.04296875 C-144.47622085 111.71825921 -134.81703737 127.19373717 -117 138 C-112.76362856 140.2988468 -108.48882206 142.24706584 -104 144 C-103.12601562 144.34160156 -102.25203125 144.68320313 -101.3515625 145.03515625 C-83.27011656 150.73531883 -61.94270019 147.88104302 -45.3125 139.4375 C-27.73797208 129.8741529 -15.51125489 113.70538726 -9.625 94.75 C-9.07249057 92.83643076 -8.52668152 90.92083848 -8 89 C-7.09378906 89.03222656 -6.18757812 89.06445312 -5.25390625 89.09765625 C1.17831995 89.03639695 6.02385437 88.91368975 10.8125 84.3125 C15.90465674 78.39717507 19.98444367 71.6736078 24 65 C19.01163543 64.17596337 14.02428996 63.54646788 9 63 C8.2251123 62.90493164 7.45022461 62.80986328 6.65185547 62.71191406 C-1.23072235 61.80796692 -1.23072235 61.80796692 -9 63 C-12.86872311 66.41593922 -14.71271103 70.43616051 -17 75 C-18.36484974 76.87222882 -19.77993819 78.70919743 -21.25 80.5 C-22.18585938 81.66015625 -22.18585938 81.66015625 -23.140625 82.84375 C-24.06101563 83.91109375 -24.06101563 83.91109375 -25 85 C-25.5878125 85.74765625 -26.175625 86.4953125 -26.78125 87.265625 C-29.95279073 89.74478712 -32.28711479 89.39677353 -36.25 89.25 C-37.51328125 89.21390625 -38.7765625 89.1778125 -40.078125 89.140625 C-41.04234375 89.09421875 -42.0065625 89.0478125 -43 89 C-42.07038578 87.84775972 -41.1309875 86.70340824 -40.1875 85.5625 C-39.66542969 84.92441406 -39.14335937 84.28632813 -38.60546875 83.62890625 C-37 82 -37 82 -34 81 C-32.94978897 79.15028304 -32.94978897 79.15028304 -32 77 C-30.5 74.75 -30.5 74.75 -29 73 C-28.34 73 -27.68 73 -27 73 C-26.34 71.02 -25.68 69.04 -25 67 C-43.85943905 74.94301935 -43.85943905 74.94301935 -61 86 C-61.66 85.67 -62.32 85.34 -63 85 C-62.66226563 83.75605469 -62.32453125 82.51210937 -61.9765625 81.23046875 C-58.50098351 68.32136084 -55.57688548 56.46914553 -56 43 C-56.33 43.66 -56.66 44.32 -57 45 C-57.66 45 -58.32 45 -59 45 C-59.25265625 45.6909375 -59.5053125 46.381875 -59.765625 47.09375 C-61.17602315 50.41443426 -62.91267663 53.39506593 -64.75 56.5 C-70.22534559 65.91929181 -74.81537552 75.56150864 -78 86 C-78.66 86 -79.32 86 -80 86 C-80.35191406 85.01902344 -80.70382813 84.03804688 -81.06640625 83.02734375 C-81.56368205 81.66354312 -82.06250359 80.30030555 -82.5625 78.9375 C-82.82699951 78.21304688 -83.09149902 77.48859375 -83.36401367 76.7421875 C-84.96785335 72.44910486 -86.76747477 68.38515056 -88.87695312 64.31933594 C-93.11284697 56.08189311 -94.65239154 48.28227264 -94 39 C-93.01 38.01 -93.01 38.01 -92 37 C-80 56.10679612 -80 56.10679612 -80 60 C-79.34 60 -78.68 60 -78 60 C-77.34 57.69 -76.68 55.38 -76 53 C-75.34 53 -74.68 53 -74 53 C-73.89429688 52.27941406 -73.78859375 51.55882812 -73.6796875 50.81640625 C-70.05237049 35.78597198 -52.37230362 21.02505024 -40.125 12.9375 C-28.42187658 5.9733174 -13.77436749 0 0 0 Z " fill="#080605" transform="translate(231,52)"/>
<path d="M0 0 C13.73760293 7.05132906 23.01017457 23.05945097 27.72509766 37.23632812 C28.44613919 39.6260658 29.12379488 42.02881655 29.79296875 44.43359375 C26.82296875 46.74359375 23.85296875 49.05359375 20.79296875 51.43359375 C18.31324772 48.95387272 17.72062238 46.79744942 16.54296875 43.49609375 C12.97114707 34.02345556 8.37494985 23.4443297 0.79296875 16.43359375 C-3.07017978 15.99357852 -3.07017978 15.99357852 -4.84765625 17.875 C-22.45703086 41.08347187 -27.38334778 68.55730436 -23.72802734 97.18505859 C-22.65516212 103.54145929 -21.27457926 109.81407905 -19.75830078 116.078125 C-19.11061207 118.84557436 -18.62022763 121.62195858 -18.20703125 124.43359375 C-22.59836634 122.84666769 -26.50458531 120.59322486 -30.51953125 118.24609375 C-38.49159581 113.65954161 -46.71580865 109.94525629 -55.20703125 106.43359375 C-50.00434668 114.52011931 -43.73683285 121.44836684 -36.20703125 127.43359375 C-36.20703125 127.76359375 -36.20703125 128.09359375 -36.20703125 128.43359375 C-49.22579402 129.65410276 -49.22579402 129.65410276 -53.984375 126.72265625 C-59.20703125 121.49055578 -59.20703125 121.49055578 -59.20703125 118.43359375 C-60.69203125 117.93859375 -60.69203125 117.93859375 -62.20703125 117.43359375 C-63.78676843 115.29116923 -65.16661312 113.21395703 -66.51953125 110.93359375 C-66.91543457 110.267229 -67.31133789 109.60086426 -67.71923828 108.91430664 C-77.10576733 92.50979413 -81.42713081 73.10660731 -81.33203125 54.30859375 C-81.33589844 53.53644531 -81.33976562 52.76429687 -81.34375 51.96875 C-81.33644209 47.67900923 -81.05730524 43.65797088 -80.20703125 39.43359375 C-63.44030761 41.31861002 -49.52896011 46.62627675 -35.20703125 55.43359375 C-35.01109375 54.47582031 -34.81515625 53.51804688 -34.61328125 52.53125 C-30.02911369 31.58607141 -20.04121743 14.88162221 -4.20703125 0.43359375 C-2.20703125 -0.56640625 -2.20703125 -0.56640625 0 0 Z M-71.20703125 52.43359375 C-71.55814962 63.17521498 -71.22387462 73.00580905 -68.20703125 83.43359375 C-67.82417969 84.80064453 -67.82417969 84.80064453 -67.43359375 86.1953125 C-66.31500197 89.38175972 -65.42567534 91.71912321 -62.44140625 93.46875 C-60.05560785 94.27727057 -57.65532804 94.83964869 -55.20703125 95.43359375 C-52.80246985 96.24139713 -50.40694722 97.07644335 -48.01953125 97.93359375 C-46.87097656 98.33578125 -45.72242187 98.73796875 -44.5390625 99.15234375 C-41.20703125 100.43359375 -41.20703125 100.43359375 -37.90625 102.15234375 C-37.01550781 102.57515625 -36.12476563 102.99796875 -35.20703125 103.43359375 C-34.54703125 103.10359375 -33.88703125 102.77359375 -33.20703125 102.43359375 C-33.33980469 101.89476562 -33.47257812 101.3559375 -33.609375 100.80078125 C-34.67321671 95.84654029 -35.26136928 91.15300414 -35.2109375 86.0859375 C-34.80740498 75.87324341 -34.80740498 75.87324341 -38 66.48046875 C-40.62728003 64.30321222 -43.12318949 62.8937461 -46.20703125 61.43359375 C-47.38712803 60.79459665 -48.56410345 60.14980935 -49.73828125 59.5 C-56.59525231 55.81381933 -63.28301715 52.43359375 -71.20703125 52.43359375 Z " fill="#080605" transform="translate(153.20703125,12.56640625)"/>
</svg>
